<svg width="351" height="311" viewBox="0 0 351 311" fill="none" xmlns="http://www.w3.org/2000/svg">
<g style="mix-blend-mode:multiply" clip-path="url(#clip0_5355_9579)">
<path d="M325.62 59.5274C324.395 57.6262 323.118 55.7621 321.781 53.9426C304.016 29.687 274.451 13.0809 245.717 5.55771C233.128 2.26026 220.199 0.529843 207.298 0.0916687C122.664 -2.7676 91.5758 62.0896 64.305 78.8071C37.0417 95.532 -4.80028 124.088 0.45039 184.088C4.43109 229.702 32.3554 273.327 83.3545 293.178C88.969 295.369 94.8733 297.278 101.052 298.852C112.549 301.793 125.003 303.635 138.431 304.192C176.99 305.789 208.294 297.152 238.914 275.399C246.029 270.341 253.114 264.638 262.352 264.014C269.066 263.561 275.431 265.804 268.413 271.834C260.162 278.919 269.683 292.866 290.618 283.175C325.591 266.999 339.976 232.094 346.757 196.602C355.075 153.037 351.042 98.8591 325.62 59.52V59.5274Z" fill="#F5F5F6"/>
<path d="M40 268H311" stroke="#263238" stroke-miterlimit="10"/>
<path d="M201.33 84.7101C198.29 79.0601 185.91 79.1401 185.91 79.1401C185.91 79.1401 192.64 85.1501 193.5 89.0601" stroke="#3C3C3D" stroke-miterlimit="10"/>
<path d="M160.09 30.75C160.09 30.75 155.2 22.87 147.31 20.96C139.43 19.06 122.84 26.4 108.44 41.08C94.0301 55.76 97.57 62.83 99.2 66.91C100.83 70.99 102.19 76.15 102.19 76.15C102.19 76.15 93.76 72.89 88.87 76.69C83.98 80.49 91.32 91.64 92.4 92.73C93.49 93.82 85.0601 97.62 84.2401 98.44C83.4201 99.26 77.7201 104.96 80.9801 110.13C84.2401 115.3 98.92 123.18 98.92 123.99C98.92 124.8 96.2 131.33 100.28 134.05C104.36 136.77 111.43 137.31 114.14 136.77C116.85 136.23 134.26 139.76 136.16 124.81C138.06 109.86 132.63 85.66 132.63 85.66L171.23 60.38L185.91 79.14C185.91 79.14 196.07 77.71 199.33 72.81C202.59 67.92 199.77 52.22 192.43 46.52C185.09 40.82 184.27 46.25 184.27 46.25C184.27 46.25 184.54 35.92 175.03 30.21C165.52 24.5 160.08 30.75 160.08 30.75H160.09Z" fill="#3C3C3D" stroke="#3C3C3D" stroke-miterlimit="10"/>
<path d="M84.52 67.18C90.77 66.91 102.19 76.15 102.19 76.15C102.19 76.15 90.5 72.07 85.88 74.79C81.26 77.51 82.07 81.86 82.07 81.86" stroke="#3C3C3D" stroke-miterlimit="10"/>
<path d="M128.29 114.75C128.29 114.75 131.01 119.91 128.83 125.08C126.66 130.25 125.02 129.43 115.24 133.78C105.45 138.13 76.64 148.46 71.75 157.43C66.86 166.4 63.32 182.71 64.14 198.21C64.96 213.71 75.01 264 77.19 266.17C79.36 268.34 82.35 268.07 82.35 268.07H250.62C250.62 268.07 260.13 266.17 260.68 251.76C261.23 237.35 256.87 224.03 253.07 216.69C249.26 209.35 243.28 191.41 236.76 175.37C230.24 159.33 228.6 146.83 219.91 140.3C211.21 133.78 195.99 130.79 195.99 130.79L176.42 125.62L173.7 123.17L128.3 114.74L128.29 114.75Z" fill="#AEAEB2" stroke="#3C3C3D" stroke-miterlimit="10"/>
<path d="M214.22 260.23C214.22 260.23 213.82 261.85 217.05 262.46C220.29 263.07 223.12 265.09 227.37 264.08C231.62 263.07 235.46 260.03 235.66 250.33C235.86 240.62 233.64 236.58 229.39 234.35C225.14 232.12 216.44 235.56 215.43 236.58C214.42 237.6 213.61 240.22 213.81 242.65C214.01 245.08 214.21 260.25 214.21 260.25L214.22 260.23Z" fill="#AEAEB2" stroke="#3C3C3D" stroke-miterlimit="10"/>
<path d="M217.25 234.54C217.25 234.54 224.73 229.89 226.55 226.85C228.37 223.82 241.72 221.39 247.38 225.03C253.04 228.67 253.45 232.31 254.26 234.13" stroke="#3C3C3D" stroke-miterlimit="10"/>
<path d="M217.05 262.46C217.05 262.46 224.33 267.72 234.45 268.12" stroke="#3C3C3D" stroke-miterlimit="10"/>
<path d="M233.18 221.77C233.18 221.77 243.23 218.42 249.94 222.33" stroke="#3C3C3D" stroke-miterlimit="10"/>
<path d="M255.25 237.13C255.25 237.13 255.81 239.36 255.53 242.72" stroke="#3C3C3D" stroke-miterlimit="10"/>
<path d="M163.35 229.81C164.67 222.66 164.67 179.5 164.67 179.5C164.67 179.5 166.26 208.36 173.41 222.66" fill="#3C3C3D"/>
<path d="M163.35 229.81C164.67 222.66 164.67 179.5 164.67 179.5C164.67 179.5 166.26 208.36 173.41 222.66" stroke="#3C3C3D" stroke-miterlimit="10"/>
<path d="M215.73 183.4C218.3 194.27 221.74 211.38 221.07 222.4" stroke="#3C3C3D" stroke-miterlimit="10"/>
<path d="M213.12 173.15C213.12 173.15 213.66 175.09 214.47 178.27" stroke="#3C3C3D" stroke-miterlimit="10"/>
<path d="M115.24 133.78C114.82 133.97 114.35 134.17 113.85 134.38C116.57 139.59 123.7 151.27 137.53 162.05C156.02 176.46 164.67 179.5 164.67 179.5C168.48 177.33 185.92 142.2 187.28 131.87C187.44 130.69 187.58 129.61 187.72 128.6L176.4 125.61L173.68 123.16L128.28 114.73C128.28 114.73 131 119.89 128.82 125.06C126.65 130.23 125.01 129.41 115.23 133.76L115.24 133.78Z" fill="white" stroke="#3C3C3D" stroke-miterlimit="10"/>
<path d="M130.25 148.82L152.04 152.69C152.04 152.69 156.88 155.11 157.85 158.02" stroke="#3C3C3D" stroke-miterlimit="10"/>
<path d="M180.05 129.32C180.05 129.32 176.31 155.16 171.55 165.37C166.79 175.57 163.92 182.07 164.68 179.5C165.43 176.93 180.24 158.23 187.29 131.87L180.06 129.32H180.05Z" fill="#3C3C3D" stroke="#3C3C3D" stroke-miterlimit="10"/>
<path d="M174.23 125.35C174.23 125.35 173.09 133.37 177 139.46" stroke="#3C3C3D" stroke-miterlimit="10"/>
<path d="M183.74 103.33C183.74 103.33 198.15 100.34 200.87 105.23C203.59 110.12 200.05 119.64 200.05 120.73C200.05 121.82 216.63 122.9 218.81 131.06C220.98 139.22 210.93 146.83 206.58 149.82C202.23 152.81 210.11 157.16 200.87 159.61C191.63 162.06 198.42 152 198.42 152C198.42 152 189.45 158.25 186.19 148.47C182.93 138.69 187.82 132.7 187.28 131.89C186.74 131.07 175.05 129.72 174.23 125.37C173.41 121.02 182.93 109.87 183.74 103.35V103.33Z" fill="#3C3C3D" stroke="#3C3C3D" stroke-miterlimit="10"/>
<path d="M123.39 147.92L158.73 131.34L130.19 119.65C130.19 119.65 129.1 124.27 128.02 127.26C126.94 130.25 115.24 133.78 115.24 133.78C115.24 133.78 114.97 139.22 123.4 147.92H123.39Z" fill="#3C3C3D" stroke="#3C3C3D" stroke-miterlimit="10"/>
<path d="M171.24 54.13C171.24 54.13 175.83 60.08 183.74 67.99C185.37 69.62 187 71.52 187 71.52C187 71.52 184.26 75.99 183.67 85.36C183.16 93.47 186.75 99.24 183.74 110.67C181.23 120.17 169.33 131.87 165.25 134.59C161.17 137.31 154.65 135.68 150.3 133.77C145.95 131.87 137.52 128.19 134.41 125.55C125.99 118.36 118.49 97.07 117.67 91.91C116.85 86.74 116.58 79.95 116.58 79.95C116.58 79.95 122.29 79.95 137.51 73.15C152.73 66.35 171.22 54.12 171.22 54.12L171.24 54.13Z" fill="white" stroke="#3C3C3D" stroke-miterlimit="10"/>
<path d="M167.27 53.69C167.27 53.69 159.65 63.11 145.1 72.37C130.55 81.63 121.29 76.34 121.29 76.34C121.29 76.34 133.2 83.84 145.1 79.87C157.01 75.9 172.88 53.41 172.88 53.41L167.27 53.69Z" fill="#3C3C3D" stroke="#3C3C3D" stroke-miterlimit="10"/>
<path d="M151.79 94.7001C151.79 94.7001 151.4 96.2401 147.36 97.9701L151.79 94.7001Z" fill="white"/>
<path d="M151.79 94.7001C151.79 94.7001 151.4 96.2401 147.36 97.9701" stroke="#3C3C3D" stroke-miterlimit="10"/>
<path d="M170.09 94.3101C170.09 94.3101 171.25 95.4701 175.48 96.8101L170.09 94.3101Z" fill="white"/>
<path d="M170.09 94.3101C170.09 94.3101 171.25 95.4701 175.48 96.8101" stroke="#3C3C3D" stroke-miterlimit="10"/>
<path d="M128.34 74.72C128.34 74.72 127.04 91.23 123.56 93.4C120.08 95.57 113.13 80.37 113.13 80.37L125.73 66.9L128.34 74.72Z" fill="#3C3C3D" stroke="#3C3C3D" stroke-miterlimit="10"/>
<path d="M152.63 74.9C152.63 74.9 139.62 83.28 138.91 84.87C138.19 86.46 141.75 84.99 144.57 83.98C147.4 82.97 156.35 79.56 156.6 77.25C156.85 74.94 155.39 73.63 152.63 74.9Z" fill="#3C3C3D"/>
<path d="M165.8 76.69C165.8 76.69 163.35 79.41 165.26 80.22C167.17 81.03 176.68 84.03 178.31 83.21C179.94 82.39 174.23 79.13 171.79 77.77C169.34 76.41 167.98 74.51 165.81 76.68L165.8 76.69Z" fill="#3C3C3D"/>
<path d="M160.74 109.15C160.74 109.15 167.26 107.79 166.72 104.8C166.18 101.81 162.64 96.1 162.64 96.1L162.91 82.51" fill="white"/>
<path d="M160.74 109.15C160.74 109.15 167.26 107.79 166.72 104.8C166.18 101.81 162.64 96.1 162.64 96.1L162.91 82.51" stroke="#3C3C3D" stroke-miterlimit="10"/>
<path d="M160.07 107.61C160.07 107.61 158.14 109.15 156.41 109.15C154.68 109.15 154.48 107.42 154.87 106.26" fill="white"/>
<path d="M160.07 107.61C160.07 107.61 158.14 109.15 156.41 109.15C154.68 109.15 154.48 107.42 154.87 106.26" stroke="#3C3C3D" stroke-miterlimit="10"/>
<path d="M156.01 116.93C156.01 116.93 160.9 114.48 163.62 115.84" stroke="#3C3C3D" stroke-miterlimit="10"/>
<path d="M175.72 90.83C175.72 92.86 174.93 94.5 173.95 94.5C172.97 94.5 172.18 92.86 172.18 90.83C172.18 88.8 172.97 87.16 173.95 87.16C174.93 87.16 175.72 88.8 175.72 90.83Z" fill="#3C3C3D"/>
<path d="M151.26 91.3701C151.26 93.4001 150.47 95.0401 149.49 95.0401C148.51 95.0401 147.72 93.4001 147.72 91.3701C147.72 89.3401 148.51 87.7001 149.49 87.7001C150.47 87.7001 151.26 89.3401 151.26 91.3701Z" fill="#3C3C3D"/>
<path d="M110.07 107.95C110.07 107.95 115.51 101.43 119.04 101.15C122.57 100.88 122.85 102.78 122.85 104.41C122.85 106.04 114.97 110.39 113.61 114.74C112.25 119.09 112.25 121.26 110.35 124.8C108.45 128.33 105.19 131.32 105.19 131.32C105.19 131.32 106.28 113.11 110.08 107.94L110.07 107.95Z" fill="white" stroke="#3C3C3D" stroke-miterlimit="10"/>
<path d="M85.34 145.47C85.34 145.47 91.59 120.19 91.59 119.37C91.59 118.55 97.03 85.93 97.03 85.93C97.03 85.93 110.35 75.33 111.44 73.97C112.53 72.61 114.16 68.81 116.33 70.16C118.5 71.52 117.69 77.5 117.69 77.5C117.69 77.5 119.86 78.86 119.86 81.58C119.86 84.3 118.77 88.92 117.69 91.91C116.6 94.9 110.08 107.95 110.08 107.95C110.08 107.95 107.63 122.63 106.55 127.25C105.47 131.87 100.84 139.21 100.84 139.21L100.02 144.92L85.34 145.46V145.47Z" fill="white" stroke="#3C3C3D" stroke-miterlimit="10"/>
<path d="M117.68 77.51C117.68 77.51 114.69 84.03 114.15 85.67C113.61 87.3 107.9 91.65 107.08 94.91C106.26 98.17 103 105.51 103 105.51" stroke="#3C3C3D" stroke-miterlimit="10"/>
<path d="M111.43 73.97C111.43 73.97 109.53 82.4 108.71 83.48C107.89 84.57 102.19 91.91 101.37 94.35C100.55 96.8 98.11 101.69 98.11 101.69" stroke="#3C3C3D" stroke-miterlimit="10"/>
<path d="M107.08 85.39L102.19 90.01" stroke="#3C3C3D" stroke-miterlimit="10"/>
<path d="M77.89 141.93C77.89 141.93 74.18 158.48 75.91 160.21C77.64 161.94 104.32 163.67 105.06 163.67C105.8 163.67 107.78 146.38 107.04 143.41C106.3 140.45 95.18 139.7 90.24 139.7C85.3 139.7 79.12 139.21 77.89 141.92V141.93Z" fill="#AEAEB2" stroke="#3C3C3D" stroke-miterlimit="10"/>
<path d="M75.91 160.21C75.91 160.21 73.44 168.61 73.44 174.04C73.44 179.47 68 216.78 65.29 235.31C62.57 253.84 65.29 261 70.73 265.45C76.16 269.9 84.56 272.86 90.49 271.63C96.42 270.39 104.08 270.64 108.28 262.24C112.48 253.84 113.72 237.54 111.24 225.18C108.77 212.83 105.06 163.66 105.06 163.66L75.91 160.2V160.21Z" fill="#AEAEB2" stroke="#3C3C3D" stroke-miterlimit="10"/>
<path d="M217.46 239.8C217.46 239.8 224.94 241.01 226.36 244.86C227.78 248.7 226.56 252.95 222.11 256.59C217.66 260.23 208.36 263.27 207.14 263.27C205.92 263.27 208.76 248.3 211.19 244.66C213.62 241.02 217.46 239.81 217.46 239.81V239.8Z" fill="white" stroke="#3C3C3D" stroke-miterlimit="10"/>
<path d="M194.8 255.99C194.8 255.99 197.43 260.64 201.07 263.07C204.71 265.5 208.55 262.26 208.55 262.26L194.8 255.99Z" fill="white" stroke="#3C3C3D" stroke-miterlimit="10"/>
<path d="M193.18 248.5C193.18 248.5 192.37 253.35 193.58 254.57C194.79 255.78 204.91 263.27 208.55 262.26C212.19 261.25 213.61 258.01 213.2 256.6C212.8 255.18 193.17 248.51 193.17 248.51L193.18 248.5Z" fill="white" stroke="#3C3C3D" stroke-miterlimit="10"/>
<path d="M193.79 245.67C193.79 245.67 191.97 246.28 193.18 248.5C194.39 250.73 205.92 256.19 209.36 256.59C212.8 256.99 214.62 255.78 215.63 252.75C216.64 249.72 218.06 248.7 216.84 248.1C215.63 247.49 193.78 245.67 193.78 245.67H193.79Z" fill="white" stroke="#3C3C3D" stroke-miterlimit="10"/>
<path d="M193.79 245.67C193.79 245.67 211.59 249.51 215.43 249.51C219.27 249.51 221.09 245.46 221.5 243.24C221.9 241.01 222.92 239.8 217.45 239.8C211.98 239.8 197.42 241.22 195 241.82C192.57 242.43 191.16 243.84 193.79 245.66V245.67Z" fill="white" stroke="#3C3C3D" stroke-miterlimit="10"/>
<path d="M99 283.73H166.31L155.57 311.49L99 283.73Z" fill="#E6E6E7" stroke="#263238" stroke-linecap="round" stroke-linejoin="round"/>
<path d="M159.42 286.04H123.51L161.23 298.55" stroke="#263238" stroke-linecap="round" stroke-linejoin="round"/>
<path d="M155.21 311.49L276.4 303.97L291.66 211.58L170.46 217.21L155.21 311.49Z" fill="#E6E6E7" stroke="#263238" stroke-linecap="round" stroke-linejoin="round"/>
<path d="M155.21 311.49L276.4 303.97L291.66 211.58L170.46 217.21L155.21 311.49Z" fill="#E6E6E7" stroke="#263238" stroke-linecap="round" stroke-linejoin="round"/>
<path d="M159.06 311.49L280.26 303.97L295.51 211.58L174.32 217.21L159.06 311.49Z" fill="#E6E6E7" stroke="#263238" stroke-linecap="round" stroke-linejoin="round"/>
<path d="M280.73 299.87L280.01 303.97L155.21 311.49L155.93 307.39L280.73 299.87Z" fill="#263238" stroke="#263238" stroke-linecap="round" stroke-linejoin="round"/>
<path d="M99 287.34L155.57 311.49V307.89L99 283.73V287.34Z" fill="#E6E6E7" stroke="#263238" stroke-linecap="round" stroke-linejoin="round"/>
</g>
<defs>
<clipPath id="clip0_5355_9579">
<rect width="351" height="311" fill="white"/>
</clipPath>
</defs>
</svg>
