<svg width="187" height="32" viewBox="0 0 187 32" fill="none" xmlns="http://www.w3.org/2000/svg">
<path d="M0 25.5435V9.51956H4.13278V13.3641L3.83758 12.8065C4.19182 11.4565 4.77238 10.5467 5.57925 10.0772C6.40581 9.58804 7.37996 9.34348 8.50172 9.34348H9.44635V13.1587H8.05892C6.97653 13.1587 6.10077 13.4913 5.43165 14.1565C4.76254 14.8022 4.42798 15.7217 4.42798 16.9152V25.5435H0Z" fill="#1E1E1F"/>
<path d="M11.3871 25.5435V9.51956H15.815V25.5435H11.3871ZM11.3871 8.08152V3.67935H15.815V8.08152H11.3871Z" fill="#1E1E1F"/>
<path d="M26.9666 32C25.7268 32 24.5755 31.7946 23.5128 31.3837C22.4501 30.9728 21.535 30.3957 20.7674 29.6522C20.0196 28.9283 19.4784 28.0674 19.1439 27.0696L23.2471 25.6315C23.4636 26.375 23.9064 26.962 24.5755 27.3924C25.2446 27.8228 26.0417 28.038 26.9666 28.038C27.6948 28.038 28.3245 27.9011 28.8559 27.6272C29.3872 27.3728 29.7907 26.9913 30.0662 26.4826C30.3614 25.9739 30.509 25.3772 30.509 24.6924V21.0239L31.3651 22.0804C30.814 22.9804 30.1056 23.6554 29.2396 24.1054C28.3737 24.5359 27.3602 24.7511 26.1991 24.7511C24.7034 24.7511 23.3652 24.4185 22.1844 23.7533C21.0036 23.0685 20.0787 22.1391 19.4095 20.9652C18.7404 19.7717 18.4059 18.4217 18.4059 16.9152C18.4059 15.4087 18.7404 14.0783 19.4095 12.9239C20.0787 11.75 20.9938 10.8304 22.1549 10.1652C23.316 9.5 24.6345 9.16739 26.1105 9.16739C27.2717 9.16739 28.2852 9.40217 29.1511 9.87174C30.017 10.3217 30.755 11.0163 31.3651 11.9554L30.8042 13.012V9.51956H34.937V24.6924C34.937 26.1011 34.5926 27.3533 33.9038 28.4489C33.215 29.5641 32.2704 30.4348 31.0699 31.0609C29.8891 31.687 28.5213 32 26.9666 32ZM26.819 20.7598C27.5669 20.7598 28.2163 20.6033 28.7673 20.2902C29.3184 19.9772 29.7415 19.537 30.0367 18.9696C30.3516 18.4022 30.509 17.737 30.509 16.9739C30.509 16.2109 30.3516 15.5457 30.0367 14.9783C29.7218 14.3913 29.2888 13.9413 28.7378 13.6283C28.1868 13.2957 27.5472 13.1293 26.819 13.1293C26.0712 13.1293 25.4021 13.2957 24.8117 13.6283C24.2409 13.9413 23.7883 14.3913 23.4538 14.9783C23.1389 15.5457 22.9814 16.2109 22.9814 16.9739C22.9814 17.7174 23.1389 18.3728 23.4538 18.9402C23.7883 19.5076 24.2409 19.9576 24.8117 20.2902C25.4021 20.6033 26.0712 20.7598 26.819 20.7598Z" fill="#1E1E1F"/>
<path d="M38.1971 25.5435V3.32717H42.6251V12.6891L42.0937 11.9848C42.4676 11.0261 43.0678 10.3217 43.8944 9.87174C44.7406 9.40217 45.7246 9.16739 46.8464 9.16739C48.0665 9.16739 49.1293 9.42174 50.0345 9.93043C50.9595 10.4391 51.6778 11.1533 52.1895 12.0728C52.7012 12.9728 52.957 14.0293 52.957 15.2424V25.5435H48.529V16.1815C48.529 15.5554 48.4011 15.0174 48.1453 14.5674C47.9091 14.1174 47.5647 13.7652 47.1121 13.5109C46.6791 13.2565 46.1674 13.1293 45.577 13.1293C45.0063 13.1293 44.4946 13.2565 44.042 13.5109C43.5894 13.7652 43.2351 14.1174 42.9793 14.5674C42.7431 15.0174 42.6251 15.5554 42.6251 16.1815V25.5435H38.1971Z" fill="#1E1E1F"/>
<path d="M63.6324 25.7196C61.684 25.7196 60.1687 25.2011 59.0863 24.1641C58.0236 23.1076 57.4922 21.6402 57.4922 19.762V13.3348H54.7764V9.51956H54.924C55.7506 9.51956 56.3803 9.31413 56.8133 8.90326C57.2659 8.49239 57.4922 7.87609 57.4922 7.05435V5.88043H61.9202V9.51956H65.6987V13.3348H61.9202V19.4685C61.9202 20.0163 62.0186 20.4761 62.2154 20.8478C62.4122 21.2 62.7172 21.4641 63.1305 21.6402C63.5438 21.8163 64.0555 21.9043 64.6656 21.9043C64.8033 21.9043 64.9607 21.8946 65.1379 21.875C65.315 21.8554 65.5019 21.8359 65.6987 21.8163V25.5435C65.4035 25.5826 65.069 25.6217 64.6951 25.6609C64.3212 25.7 63.9669 25.7196 63.6324 25.7196Z" fill="#1E1E1F"/>
<path d="M68.2935 31.413V9.51956H72.4263V12.5717L72.0425 11.6913C72.5739 10.8891 73.2922 10.2728 74.1975 9.84239C75.1224 9.39239 76.1753 9.16739 77.3561 9.16739C78.8911 9.16739 80.2785 9.53913 81.5184 10.2826C82.7582 11.0261 83.7422 12.0337 84.4704 13.3054C85.1985 14.5576 85.5626 15.9663 85.5626 17.5315C85.5626 19.0772 85.1985 20.4859 84.4704 21.7576C83.7619 23.0293 82.7877 24.037 81.5479 24.7804C80.3081 25.5239 78.901 25.8957 77.3266 25.8957C76.2245 25.8957 75.2011 25.7 74.2565 25.3087C73.3316 24.8978 72.5837 24.3011 72.013 23.5185L72.7215 22.6087V31.413H68.2935ZM76.7952 21.9337C77.6218 21.9337 78.3499 21.7478 78.9797 21.3761C79.6094 21.0043 80.1014 20.4859 80.4557 19.8207C80.8099 19.1554 80.987 18.3924 80.987 17.5315C80.987 16.6707 80.8099 15.9174 80.4557 15.2717C80.1014 14.6065 79.6094 14.088 78.9797 13.7163C78.3499 13.325 77.6218 13.1293 76.7952 13.1293C76.008 13.1293 75.2995 13.3152 74.6698 13.687C74.0597 14.0587 73.5776 14.5772 73.2233 15.2424C72.8888 15.9076 72.7215 16.6707 72.7215 17.5315C72.7215 18.3924 72.8888 19.1554 73.2233 19.8207C73.5776 20.4859 74.0597 21.0043 74.6698 21.3761C75.2995 21.7478 76.008 21.9337 76.7952 21.9337Z" fill="#1E1E1F"/>
<path d="M93.1448 25.8957C91.9837 25.8957 90.98 25.7098 90.1338 25.338C89.2876 24.9663 88.6381 24.438 88.1855 23.7533C87.7328 23.0489 87.5065 22.2174 87.5065 21.2587C87.5065 20.3587 87.7132 19.5663 88.1264 18.8815C88.5397 18.1772 89.1695 17.5902 90.0157 17.1207C90.8816 16.6511 91.9542 16.3185 93.2334 16.1228L98.1632 15.3304V18.5587L94.0304 19.2924C93.4007 19.4098 92.9185 19.6152 92.584 19.9087C92.2494 20.1826 92.0821 20.5837 92.0821 21.112C92.0821 21.6011 92.2691 21.9826 92.643 22.2565C93.0169 22.5304 93.4794 22.6674 94.0304 22.6674C94.7586 22.6674 95.3982 22.5109 95.9492 22.1978C96.5003 21.8848 96.9234 21.4641 97.2186 20.9359C97.5334 20.388 97.6909 19.7913 97.6909 19.1457V14.9783C97.6909 14.3717 97.4449 13.863 96.9529 13.4522C96.4806 13.0413 95.8311 12.8359 95.0046 12.8359C94.2174 12.8359 93.5187 13.0511 92.9087 13.4815C92.3183 13.912 91.8853 14.4793 91.6098 15.1837L88.0674 13.5109C88.3823 12.6109 88.8841 11.838 89.5729 11.1924C90.2617 10.5467 91.0883 10.0478 92.0526 9.69565C93.0169 9.34348 94.0698 9.16739 95.2112 9.16739C96.5691 9.16739 97.7696 9.41195 98.8126 9.90108C99.8557 10.3902 100.663 11.075 101.233 11.9554C101.824 12.8163 102.119 13.8239 102.119 14.9783V25.5435H97.9861V22.9609L98.9898 22.7848C98.5174 23.4891 97.9959 24.0761 97.4252 24.5457C96.8545 24.9957 96.2149 25.3283 95.5064 25.5435C94.7979 25.7783 94.0107 25.8957 93.1448 25.8957Z" fill="#1E1E1F"/>
<path d="M113.278 32C112.038 32 110.886 31.7946 109.824 31.3837C108.761 30.9728 107.846 30.3957 107.078 29.6522C106.331 28.9283 105.789 28.0674 105.455 27.0696L109.558 25.6315C109.775 26.375 110.217 26.962 110.886 27.3924C111.556 27.8228 112.353 28.038 113.278 28.038C114.006 28.038 114.636 27.9011 115.167 27.6272C115.698 27.3728 116.102 26.9913 116.377 26.4826C116.672 25.9739 116.82 25.3772 116.82 24.6924V21.0239L117.676 22.0804C117.125 22.9804 116.417 23.6554 115.551 24.1054C114.685 24.5359 113.671 24.7511 112.51 24.7511C111.014 24.7511 109.676 24.4185 108.495 23.7533C107.315 23.0685 106.39 22.1391 105.721 20.9652C105.051 19.7717 104.717 18.4217 104.717 16.9152C104.717 15.4087 105.051 14.0783 105.721 12.9239C106.39 11.75 107.305 10.8304 108.466 10.1652C109.627 9.5 110.946 9.16739 112.422 9.16739C113.583 9.16739 114.596 9.40217 115.462 9.87174C116.328 10.3217 117.066 11.0163 117.676 11.9554L117.115 13.012V9.51956H121.248V24.6924C121.248 26.1011 120.904 27.3533 120.215 28.4489C119.526 29.5641 118.581 30.4348 117.381 31.0609C116.2 31.687 114.832 32 113.278 32ZM113.13 20.7598C113.878 20.7598 114.527 20.6033 115.078 20.2902C115.629 19.9772 116.052 19.537 116.348 18.9696C116.663 18.4022 116.82 17.737 116.82 16.9739C116.82 16.2109 116.663 15.5457 116.348 14.9783C116.033 14.3913 115.6 13.9413 115.049 13.6283C114.498 13.2957 113.858 13.1293 113.13 13.1293C112.382 13.1293 111.713 13.2957 111.123 13.6283C110.552 13.9413 110.099 14.3913 109.765 14.9783C109.45 15.5457 109.292 16.2109 109.292 16.9739C109.292 17.7174 109.45 18.3728 109.765 18.9402C110.099 19.5076 110.552 19.9576 111.123 20.2902C111.713 20.6033 112.382 20.7598 113.13 20.7598Z" fill="#1E1E1F"/>
<path d="M132.272 25.8957C130.56 25.8957 129.074 25.5239 127.814 24.7804C126.555 24.0174 125.581 23 124.892 21.7283C124.203 20.4565 123.859 19.0478 123.859 17.5022C123.859 15.8978 124.213 14.4696 124.921 13.2174C125.649 11.9652 126.624 10.9772 127.844 10.2533C129.064 9.52935 130.442 9.16739 131.977 9.16739C133.256 9.16739 134.387 9.37283 135.371 9.7837C136.355 10.175 137.182 10.7326 137.851 11.4565C138.54 12.1804 139.061 13.0217 139.416 13.9804C139.77 14.9196 139.947 15.9467 139.947 17.062C139.947 17.375 139.927 17.688 139.888 18.0011C139.868 18.2946 139.819 18.5489 139.74 18.7641H127.667V15.5359H137.231L135.135 17.062C135.332 16.2207 135.322 15.4772 135.106 14.8315C134.889 14.1663 134.505 13.6478 133.954 13.2761C133.423 12.8848 132.764 12.6891 131.977 12.6891C131.209 12.6891 130.55 12.875 129.999 13.2467C129.448 13.6185 129.034 14.1663 128.759 14.8902C128.483 15.6141 128.375 16.4946 128.434 17.5315C128.355 18.4315 128.464 19.2239 128.759 19.9087C129.054 20.5935 129.507 21.1315 130.117 21.5228C130.727 21.8946 131.465 22.0804 132.331 22.0804C133.118 22.0804 133.787 21.9239 134.338 21.6109C134.909 21.2978 135.352 20.8674 135.667 20.3196L139.209 21.9924C138.894 22.775 138.392 23.4598 137.703 24.0467C137.034 24.6337 136.237 25.0935 135.312 25.4261C134.387 25.7391 133.374 25.8957 132.272 25.8957Z" fill="#1E1E1F"/>
<path d="M184.85 16.3256C178.831 19.534 176.512 21.919 174.317 24.7015C177.515 20.0877 178.455 19.3495 181.841 14.7356C183.277 15.3716 184.517 16.0606 184.85 16.3256Z" fill="#1E1E1F"/>
<path d="M186.047 20.6751C181.237 21.9805 178.029 24.1907 171.237 29.3478C173.006 27.367 174.013 25.48 177.463 22.533C180.482 19.9545 183.5 18.2968 183.5 18.2968C183.5 18.2968 185.771 20.353 186.047 20.6751Z" fill="#1E1E1F"/>
<path d="M176.161 20.7513L173.987 19.273C172.944 20.5685 171.033 20.8593 169.63 19.9052C168.227 18.9512 167.844 17.1007 168.727 15.6961L166.863 14.4284L167.515 13.5147C168.973 14.3492 171.151 13.5801 172.473 11.727C173.795 9.8739 173.779 7.61334 172.472 6.56704L173.34 5.35076L166.676 0.819443L166.694 0.831258L178.746 9.02714C180.896 10.4888 181.424 13.3748 179.927 15.4732L176.161 20.7513Z" fill="#1E1E1F"/>
<path d="M159.739 24.4138L161.253 22.2913C159.926 21.2727 159.628 19.4073 160.606 18.0376C161.583 16.6679 163.478 16.294 164.917 17.1561L166.216 15.3362L167.151 15.9726C166.297 17.3964 167.084 19.5222 168.983 20.8129C170.881 22.1037 173.196 22.0882 174.268 20.8119L175.514 21.6591L180.15 15.1611L180.143 15.1706L171.748 26.9372C170.251 29.0356 167.295 29.5519 165.145 28.0902L159.739 24.4138Z" fill="#1E1E1F"/>
<path d="M155.677 8.17022L157.851 9.64861C158.895 8.35313 160.806 8.06235 162.209 9.01638C163.612 9.97042 163.995 11.8209 163.112 13.2255L164.976 14.4931L164.324 15.4068C162.865 14.5724 160.688 15.3414 159.366 17.1945C158.044 19.0477 158.06 21.3082 159.367 22.3545L158.499 23.5708L165.16 28.1002L165.145 28.0902L153.093 19.8944C150.943 18.4328 150.414 15.5468 151.912 13.4484L155.677 8.17022Z" fill="#1E1E1F"/>
<path d="M172.1 4.50768L170.586 6.63019C171.913 7.64887 172.211 9.51424 171.233 10.8839C170.256 12.2536 168.361 12.6275 166.922 11.7654L165.623 13.5854L164.687 12.949C165.542 11.5251 164.754 9.39934 162.856 8.10857C160.958 6.81781 158.643 6.83336 157.571 8.10963L156.325 7.26245L151.69 13.7588L160.091 1.98428C161.588 -0.114138 164.544 -0.63037 166.694 0.831258L172.1 4.50768Z" fill="#1E1E1F"/>
</svg>
