<svg width="348" height="210" viewBox="0 0 348 210" fill="none" xmlns="http://www.w3.org/2000/svg">
<path d="M0 193.8V153.596H10.2768V163.242L9.54275 161.843C10.4236 158.456 11.8673 156.173 13.8737 154.995C15.929 153.768 18.3514 153.154 21.1409 153.154H23.4898V162.727H20.0398C17.3482 162.727 15.1705 163.561 13.5067 165.23C11.8428 166.85 11.0109 169.157 11.0109 172.152V193.8H0Z" fill="#1C1D20"/>
<path d="M28.3157 193.8V153.596H39.3266V193.8H28.3157ZM28.3157 149.988V138.943H39.3266V149.988H28.3157Z" fill="#1C1D20"/>
<path d="M67.0567 210C63.9737 210 61.1109 209.485 58.4682 208.454C55.8256 207.423 53.5501 205.975 51.6415 204.109C49.7819 202.293 48.4361 200.133 47.6042 197.629L57.8076 194.021C58.3459 195.887 59.447 197.359 61.1109 198.439C62.7747 199.519 64.7567 200.059 67.0567 200.059C68.8674 200.059 70.4334 199.716 71.7547 199.028C73.076 198.39 74.0792 197.433 74.7643 196.157C75.4984 194.88 75.8654 193.383 75.8654 191.665V182.461L77.9942 185.112C76.6239 187.37 74.8622 189.063 72.709 190.192C70.5557 191.272 68.0355 191.812 65.1482 191.812C61.4289 191.812 58.1012 190.978 55.165 189.309C52.2288 187.591 49.9287 185.259 48.2648 182.313C46.601 179.319 45.7691 175.932 45.7691 172.152C45.7691 168.372 46.601 165.034 48.2648 162.138C49.9287 159.192 52.2043 156.885 55.0916 155.216C57.9789 153.547 61.2577 152.712 64.9279 152.712C67.8152 152.712 70.3355 153.301 72.4887 154.48C74.642 155.609 76.4771 157.351 77.9942 159.708L76.5995 162.359V153.596H86.8763V191.665C86.8763 195.199 86.0199 198.341 84.3071 201.09C82.5943 203.888 80.2453 206.073 77.2601 207.644C74.3239 209.215 70.9228 210 67.0567 210ZM66.6897 181.798C68.5493 181.798 70.1642 181.405 71.5345 180.62C72.9047 179.834 73.9569 178.73 74.6909 177.306C75.4739 175.883 75.8654 174.214 75.8654 172.299C75.8654 170.385 75.4739 168.716 74.6909 167.292C73.9079 165.819 72.8313 164.69 71.4611 163.905C70.0908 163.07 68.5004 162.653 66.6897 162.653C64.8301 162.653 63.1662 163.07 61.6981 163.905C60.2789 164.69 59.1534 165.819 58.3214 167.292C57.5384 168.716 57.1469 170.385 57.1469 172.299C57.1469 174.165 57.5384 175.809 58.3214 177.233C59.1534 178.656 60.2789 179.785 61.6981 180.62C63.1662 181.405 64.8301 181.798 66.6897 181.798Z" fill="#1C1D20"/>
<path d="M94.983 193.8V138.059H105.994V161.549L104.673 159.781C105.602 157.376 107.095 155.609 109.15 154.48C111.255 153.301 113.701 152.712 116.491 152.712C119.525 152.712 122.168 153.351 124.419 154.627C126.719 155.903 128.505 157.695 129.777 160.002C131.05 162.26 131.686 164.911 131.686 167.955V193.8H120.675V170.311C120.675 168.74 120.357 167.39 119.721 166.261C119.134 165.132 118.277 164.248 117.152 163.61C116.075 162.972 114.803 162.653 113.334 162.653C111.915 162.653 110.643 162.972 109.517 163.61C108.392 164.248 107.511 165.132 106.875 166.261C106.287 167.39 105.994 168.74 105.994 170.311V193.8H94.983Z" fill="#1C1D20"/>
<path d="M158.232 194.242C153.387 194.242 149.619 192.941 146.927 190.34C144.285 187.689 142.963 184.007 142.963 179.294V163.168H136.21V153.596H136.577C138.632 153.596 140.198 153.081 141.275 152.05C142.401 151.019 142.963 149.472 142.963 147.411V144.465H153.974V153.596H163.37V163.168H153.974V178.558C153.974 179.933 154.219 181.086 154.708 182.019C155.198 182.903 155.956 183.565 156.984 184.007C158.012 184.449 159.284 184.67 160.801 184.67C161.144 184.67 161.535 184.645 161.976 184.596C162.416 184.547 162.881 184.498 163.37 184.449V193.8C162.636 193.899 161.804 193.997 160.874 194.095C159.945 194.193 159.064 194.242 158.232 194.242Z" fill="#1C1D20"/>
<path d="M169.822 208.527V153.596H180.099V161.254L179.145 159.045C180.466 157.032 182.253 155.486 184.504 154.406C186.804 153.277 189.422 152.712 192.358 152.712C196.175 152.712 199.625 153.645 202.708 155.51C205.791 157.376 208.238 159.904 210.049 163.095C211.859 166.237 212.765 169.771 212.765 173.698C212.765 177.576 211.859 181.111 210.049 184.302C208.287 187.492 205.865 190.021 202.782 191.886C199.699 193.751 196.2 194.684 192.285 194.684C189.544 194.684 186.999 194.193 184.65 193.211C182.35 192.18 180.491 190.683 179.072 188.72L180.833 186.437V208.527H169.822ZM190.963 184.743C193.019 184.743 194.829 184.277 196.395 183.344C197.961 182.412 199.185 181.111 200.066 179.442C200.947 177.773 201.387 175.858 201.387 173.698C201.387 171.538 200.947 169.648 200.066 168.028C199.185 166.359 197.961 165.058 196.395 164.126C194.829 163.144 193.019 162.653 190.963 162.653C189.006 162.653 187.244 163.119 185.678 164.052C184.161 164.985 182.962 166.286 182.081 167.955C181.249 169.624 180.833 171.538 180.833 173.698C180.833 175.858 181.249 177.773 182.081 179.442C182.962 181.111 184.161 182.412 185.678 183.344C187.244 184.277 189.006 184.743 190.963 184.743Z" fill="#1C1D20"/>
<path d="M231.619 194.684C228.732 194.684 226.236 194.218 224.132 193.285C222.028 192.352 220.413 191.027 219.287 189.309C218.161 187.541 217.599 185.455 217.599 183.05C217.599 180.792 218.113 178.804 219.14 177.085C220.168 175.318 221.734 173.845 223.838 172.667C225.991 171.489 228.658 170.655 231.839 170.164L244.098 168.176V176.275L233.821 178.116C232.255 178.411 231.056 178.926 230.225 179.663C229.393 180.35 228.977 181.356 228.977 182.682C228.977 183.909 229.441 184.866 230.371 185.553C231.301 186.241 232.451 186.584 233.821 186.584C235.632 186.584 237.223 186.192 238.593 185.406C239.963 184.621 241.015 183.565 241.749 182.24C242.532 180.865 242.924 179.368 242.924 177.748V167.292C242.924 165.77 242.312 164.494 241.089 163.463C239.914 162.432 238.299 161.917 236.244 161.917C234.286 161.917 232.549 162.457 231.032 163.537C229.564 164.617 228.487 166.04 227.802 167.807L218.993 163.61C219.776 161.352 221.024 159.413 222.737 157.793C224.45 156.173 226.505 154.921 228.903 154.038C231.301 153.154 233.919 152.712 236.758 152.712C240.134 152.712 243.119 153.326 245.713 154.553C248.307 155.78 250.313 157.499 251.732 159.708C253.2 161.868 253.935 164.396 253.935 167.292V193.8H243.658V187.321L246.154 186.879C244.979 188.646 243.682 190.119 242.263 191.297C240.844 192.426 239.253 193.26 237.492 193.8C235.73 194.389 233.772 194.684 231.619 194.684Z" fill="#1C1D20"/>
<path d="M281.682 210C278.599 210 275.737 209.485 273.094 208.454C270.451 207.423 268.176 205.975 266.267 204.109C264.408 202.293 263.062 200.133 262.23 197.629L272.433 194.021C272.972 195.887 274.073 197.359 275.737 198.439C277.401 199.519 279.382 200.059 281.682 200.059C283.493 200.059 285.059 199.716 286.38 199.028C287.702 198.39 288.705 197.433 289.39 196.157C290.124 194.88 290.491 193.383 290.491 191.665V182.461L292.62 185.112C291.25 187.37 289.488 189.063 287.335 190.192C285.182 191.272 282.661 191.812 279.774 191.812C276.055 191.812 272.727 190.978 269.791 189.309C266.855 187.591 264.554 185.259 262.891 182.313C261.227 179.319 260.395 175.932 260.395 172.152C260.395 168.372 261.227 165.034 262.891 162.138C264.554 159.192 266.83 156.885 269.717 155.216C272.605 153.547 275.883 152.712 279.554 152.712C282.441 152.712 284.961 153.301 287.115 154.48C289.268 155.609 291.103 157.351 292.62 159.708L291.225 162.359V153.596H301.502V191.665C301.502 195.199 300.646 198.341 298.933 201.09C297.22 203.888 294.871 206.073 291.886 207.644C288.95 209.215 285.549 210 281.682 210ZM281.315 181.798C283.175 181.798 284.79 181.405 286.16 180.62C287.53 179.834 288.583 178.73 289.317 177.306C290.1 175.883 290.491 174.214 290.491 172.299C290.491 170.385 290.1 168.716 289.317 167.292C288.534 165.819 287.457 164.69 286.087 163.905C284.717 163.07 283.126 162.653 281.315 162.653C279.456 162.653 277.792 163.07 276.324 163.905C274.905 164.69 273.779 165.819 272.947 167.292C272.164 168.716 271.773 170.385 271.773 172.299C271.773 174.165 272.164 175.809 272.947 177.233C273.779 178.656 274.905 179.785 276.324 180.62C277.792 181.405 279.456 181.798 281.315 181.798Z" fill="#1C1D20"/>
<path d="M328.914 194.684C324.657 194.684 320.962 193.751 317.83 191.886C314.698 189.971 312.276 187.419 310.563 184.228C308.85 181.037 307.994 177.503 307.994 173.625C307.994 169.599 308.875 166.016 310.636 162.874C312.447 159.732 314.87 157.253 317.904 155.437C320.938 153.621 324.363 152.712 328.18 152.712C331.361 152.712 334.175 153.228 336.622 154.259C339.069 155.241 341.124 156.64 342.788 158.456C344.501 160.272 345.798 162.383 346.679 164.788C347.56 167.145 348 169.722 348 172.52C348 173.305 347.951 174.091 347.853 174.876C347.804 175.613 347.682 176.251 347.486 176.791H317.463V168.691H341.247L336.035 172.52C336.524 170.409 336.5 168.544 335.961 166.924C335.423 165.255 334.469 163.954 333.099 163.021C331.777 162.039 330.138 161.549 328.18 161.549C326.272 161.549 324.633 162.015 323.262 162.948C321.892 163.88 320.864 165.255 320.179 167.071C319.494 168.887 319.225 171.096 319.372 173.698C319.176 175.956 319.445 177.944 320.179 179.663C320.913 181.381 322.039 182.731 323.556 183.713C325.073 184.645 326.908 185.112 329.061 185.112C331.019 185.112 332.683 184.719 334.053 183.933C335.472 183.148 336.573 182.068 337.356 180.693L346.165 184.891C345.382 186.854 344.134 188.572 342.421 190.045C340.757 191.518 338.775 192.671 336.475 193.506C334.175 194.291 331.655 194.684 328.914 194.684Z" fill="#1C1D20"/>
<path d="M234.79 61.4467C212.34 73.5225 203.687 82.4992 195.502 92.972C207.429 75.6064 210.936 72.8279 223.565 55.4622C228.922 57.856 233.55 60.4493 234.79 61.4467Z" fill="#1C1D20"/>
<path d="M239.254 77.8172C221.312 82.7305 209.348 91.0493 184.013 110.46C190.611 103.005 194.368 95.902 207.237 84.8102C218.497 75.105 229.757 68.8659 229.757 68.8659C229.757 68.8659 238.228 76.6048 239.254 77.8172Z" fill="#1C1D20"/>
<path d="M202.38 78.1042L194.271 72.5399C190.378 77.416 183.251 78.5105 178.017 74.9196C172.784 71.3288 171.355 64.3638 174.649 59.0771L167.695 54.3059L170.127 50.867C175.567 54.0077 183.69 51.1131 188.622 44.1383C193.554 37.1635 193.494 28.6552 188.618 24.7171L191.855 20.1393L166.998 3.08423L167.063 3.1287L212.022 33.9765C220.04 39.4778 222.013 50.3402 216.428 58.2382L202.38 78.1042Z" fill="#1C1D20"/>
<path d="M141.12 91.8892L146.769 83.9005C141.818 80.0664 140.707 73.0454 144.353 67.8902C147.998 62.7349 155.069 61.3277 160.436 64.5724L165.279 57.7225L168.77 60.1178C165.582 65.4769 168.521 73.4779 175.601 78.3361C182.682 83.1943 191.319 83.1358 195.317 78.3322L199.965 81.5208L217.258 57.0637L217.233 57.0994L185.917 101.387C180.332 109.285 169.305 111.228 161.287 105.726L141.12 91.8892Z" fill="#1C1D20"/>
<path d="M125.969 30.7512L134.079 36.3156C137.972 31.4396 145.099 30.3452 150.332 33.936C155.566 37.5268 156.995 44.4917 153.701 49.7784L160.655 54.5495L158.223 57.9884C152.782 54.8478 144.66 57.7423 139.728 64.7171C134.796 71.6919 134.855 80.2002 139.732 84.1383L136.495 88.7161L161.342 105.764L161.287 105.726L116.327 74.8789C108.309 69.3776 106.337 58.5152 111.922 50.6172L125.969 30.7512Z" fill="#1C1D20"/>
<path d="M187.23 16.9661L181.581 24.9548C186.531 28.7889 187.642 35.8099 183.997 40.9651C180.352 46.1204 173.281 47.5276 167.914 44.283L163.07 51.1328L159.579 48.7375C162.768 43.3784 159.829 35.3774 152.748 30.5192C145.668 25.661 137.03 25.7195 133.033 30.5232L128.385 27.3345L111.096 51.7855L142.433 7.46847C148.017 -0.429596 159.045 -2.3726 167.063 3.1287L187.23 16.9661Z" fill="#1C1D20"/>
</svg>
